<mxfile host="app.diagrams.net" agent="Mozilla/5.0 (Windows NT 10.0; Win64; x64) AppleWebKit/537.36 (KHTML, like Gecko) Chrome/140.0.0.0 Safari/537.36" version="28.2.4">
  <diagram id="z_ZI-5ZjLfY9a1l5iHDC" name="Página-1">
    <mxGraphModel dx="1603" dy="811" grid="1" gridSize="10" guides="1" tooltips="1" connect="1" arrows="1" fold="1" page="1" pageScale="1" pageWidth="1169" pageHeight="827" math="0" shadow="0">
      <root>
        <mxCell id="0" />
        <mxCell id="1" parent="0" />
        <mxCell id="Uw70dMzSXy8Ui96ppWFQ-16" style="edgeStyle=orthogonalEdgeStyle;rounded=0;orthogonalLoop=1;jettySize=auto;html=1;exitX=0.5;exitY=0.5;exitDx=0;exitDy=0;exitPerimeter=0;entryX=0.5;entryY=0;entryDx=0;entryDy=0;" edge="1" parent="1" target="Uw70dMzSXy8Ui96ppWFQ-4">
          <mxGeometry relative="1" as="geometry">
            <mxPoint x="345" y="310" as="sourcePoint" />
            <mxPoint x="270" y="420" as="targetPoint" />
            <Array as="points">
              <mxPoint x="285" y="310" />
            </Array>
          </mxGeometry>
        </mxCell>
        <mxCell id="Uw70dMzSXy8Ui96ppWFQ-17" style="edgeStyle=orthogonalEdgeStyle;rounded=0;orthogonalLoop=1;jettySize=auto;html=1;exitX=0.5;exitY=0.5;exitDx=0;exitDy=0;exitPerimeter=0;entryX=0.5;entryY=0;entryDx=0;entryDy=0;" edge="1" parent="1" source="Uw70dMzSXy8Ui96ppWFQ-1" target="Uw70dMzSXy8Ui96ppWFQ-7">
          <mxGeometry relative="1" as="geometry" />
        </mxCell>
        <mxCell id="Uw70dMzSXy8Ui96ppWFQ-20" style="edgeStyle=orthogonalEdgeStyle;rounded=0;orthogonalLoop=1;jettySize=auto;html=1;exitX=0.5;exitY=0.5;exitDx=0;exitDy=0;exitPerimeter=0;entryX=0.5;entryY=0;entryDx=0;entryDy=0;" edge="1" parent="1" source="Uw70dMzSXy8Ui96ppWFQ-1" target="Uw70dMzSXy8Ui96ppWFQ-6">
          <mxGeometry relative="1" as="geometry">
            <Array as="points">
              <mxPoint x="290" y="310" />
              <mxPoint x="290" y="270" />
              <mxPoint x="180" y="270" />
            </Array>
          </mxGeometry>
        </mxCell>
        <mxCell id="Uw70dMzSXy8Ui96ppWFQ-22" style="edgeStyle=orthogonalEdgeStyle;rounded=0;orthogonalLoop=1;jettySize=auto;html=1;exitX=0.5;exitY=0.5;exitDx=0;exitDy=0;exitPerimeter=0;" edge="1" parent="1" source="Uw70dMzSXy8Ui96ppWFQ-1" target="Uw70dMzSXy8Ui96ppWFQ-9">
          <mxGeometry relative="1" as="geometry" />
        </mxCell>
        <mxCell id="Uw70dMzSXy8Ui96ppWFQ-25" style="edgeStyle=orthogonalEdgeStyle;rounded=0;orthogonalLoop=1;jettySize=auto;html=1;exitX=0.5;exitY=0.5;exitDx=0;exitDy=0;exitPerimeter=0;entryX=0;entryY=0.5;entryDx=0;entryDy=0;" edge="1" parent="1" source="Uw70dMzSXy8Ui96ppWFQ-1" target="Uw70dMzSXy8Ui96ppWFQ-8">
          <mxGeometry relative="1" as="geometry" />
        </mxCell>
        <mxCell id="Uw70dMzSXy8Ui96ppWFQ-26" style="edgeStyle=orthogonalEdgeStyle;rounded=0;orthogonalLoop=1;jettySize=auto;html=1;exitX=0.5;exitY=0.5;exitDx=0;exitDy=0;exitPerimeter=0;entryX=1;entryY=0.5;entryDx=0;entryDy=0;" edge="1" parent="1" source="Uw70dMzSXy8Ui96ppWFQ-1" target="Uw70dMzSXy8Ui96ppWFQ-10">
          <mxGeometry relative="1" as="geometry" />
        </mxCell>
        <mxCell id="Uw70dMzSXy8Ui96ppWFQ-1" value="Aluno" style="shape=umlActor;verticalLabelPosition=bottom;verticalAlign=top;html=1;outlineConnect=0;" vertex="1" parent="1">
          <mxGeometry x="345" y="280" width="30" height="60" as="geometry" />
        </mxCell>
        <mxCell id="Uw70dMzSXy8Ui96ppWFQ-19" style="edgeStyle=orthogonalEdgeStyle;rounded=0;orthogonalLoop=1;jettySize=auto;html=1;exitX=0.5;exitY=0.5;exitDx=0;exitDy=0;exitPerimeter=0;" edge="1" parent="1" source="Uw70dMzSXy8Ui96ppWFQ-2" target="Uw70dMzSXy8Ui96ppWFQ-3">
          <mxGeometry relative="1" as="geometry" />
        </mxCell>
        <mxCell id="Uw70dMzSXy8Ui96ppWFQ-27" style="edgeStyle=orthogonalEdgeStyle;rounded=0;orthogonalLoop=1;jettySize=auto;html=1;exitX=0.5;exitY=0.5;exitDx=0;exitDy=0;exitPerimeter=0;entryX=0;entryY=0.5;entryDx=0;entryDy=0;" edge="1" parent="1" source="Uw70dMzSXy8Ui96ppWFQ-2" target="Uw70dMzSXy8Ui96ppWFQ-12">
          <mxGeometry relative="1" as="geometry" />
        </mxCell>
        <mxCell id="Uw70dMzSXy8Ui96ppWFQ-2" value="Professor" style="shape=umlActor;verticalLabelPosition=bottom;verticalAlign=top;html=1;outlineConnect=0;" vertex="1" parent="1">
          <mxGeometry x="580" y="280" width="30" height="60" as="geometry" />
        </mxCell>
        <mxCell id="Uw70dMzSXy8Ui96ppWFQ-21" style="edgeStyle=orthogonalEdgeStyle;rounded=0;orthogonalLoop=1;jettySize=auto;html=1;exitX=0.5;exitY=0.5;exitDx=0;exitDy=0;exitPerimeter=0;entryX=0;entryY=0.5;entryDx=0;entryDy=0;" edge="1" parent="1" source="Uw70dMzSXy8Ui96ppWFQ-3" target="Uw70dMzSXy8Ui96ppWFQ-11">
          <mxGeometry relative="1" as="geometry" />
        </mxCell>
        <mxCell id="Uw70dMzSXy8Ui96ppWFQ-24" style="edgeStyle=orthogonalEdgeStyle;rounded=0;orthogonalLoop=1;jettySize=auto;html=1;exitX=0;exitY=1;exitDx=0;exitDy=0;exitPerimeter=0;entryX=1;entryY=0.5;entryDx=0;entryDy=0;" edge="1" parent="1" source="Uw70dMzSXy8Ui96ppWFQ-3" target="Uw70dMzSXy8Ui96ppWFQ-14">
          <mxGeometry relative="1" as="geometry">
            <mxPoint x="915.05" y="394" as="sourcePoint" />
            <mxPoint x="750.05" y="644" as="targetPoint" />
          </mxGeometry>
        </mxCell>
        <mxCell id="Uw70dMzSXy8Ui96ppWFQ-3" value="Secretaria" style="shape=umlActor;verticalLabelPosition=bottom;verticalAlign=top;html=1;outlineConnect=0;" vertex="1" parent="1">
          <mxGeometry x="780" y="280" width="30" height="60" as="geometry" />
        </mxCell>
        <mxCell id="Uw70dMzSXy8Ui96ppWFQ-4" value="Fazer Login" style="ellipse;whiteSpace=wrap;html=1;" vertex="1" parent="1">
          <mxGeometry x="225" y="420" width="120" height="80" as="geometry" />
        </mxCell>
        <mxCell id="Uw70dMzSXy8Ui96ppWFQ-5" value="Recuperar Senha" style="ellipse;whiteSpace=wrap;html=1;" vertex="1" parent="1">
          <mxGeometry x="170" y="604" width="120" height="80" as="geometry" />
        </mxCell>
        <mxCell id="Uw70dMzSXy8Ui96ppWFQ-6" value="Fazer Logout" style="ellipse;whiteSpace=wrap;html=1;" vertex="1" parent="1">
          <mxGeometry x="120" y="290" width="120" height="80" as="geometry" />
        </mxCell>
        <mxCell id="Uw70dMzSXy8Ui96ppWFQ-7" value="Realizar Matricula" style="ellipse;whiteSpace=wrap;html=1;" vertex="1" parent="1">
          <mxGeometry x="480" y="440" width="120" height="80" as="geometry" />
        </mxCell>
        <mxCell id="Uw70dMzSXy8Ui96ppWFQ-8" value="Solicitar Histórico Escolar" style="ellipse;whiteSpace=wrap;html=1;" vertex="1" parent="1">
          <mxGeometry x="430" y="140" width="120" height="80" as="geometry" />
        </mxCell>
        <mxCell id="Uw70dMzSXy8Ui96ppWFQ-9" value="Solicitar Transferência" style="ellipse;whiteSpace=wrap;html=1;" vertex="1" parent="1">
          <mxGeometry x="340" y="560" width="120" height="80" as="geometry" />
        </mxCell>
        <mxCell id="Uw70dMzSXy8Ui96ppWFQ-10" value="Consultar notas e frequência" style="ellipse;whiteSpace=wrap;html=1;" vertex="1" parent="1">
          <mxGeometry x="180" y="100" width="120" height="80" as="geometry" />
        </mxCell>
        <mxCell id="Uw70dMzSXy8Ui96ppWFQ-11" value="Gerenciar aluno" style="ellipse;whiteSpace=wrap;html=1;" vertex="1" parent="1">
          <mxGeometry x="930" y="270" width="120" height="80" as="geometry" />
        </mxCell>
        <mxCell id="Uw70dMzSXy8Ui96ppWFQ-12" value="Gerenciar nota e frequência" style="ellipse;whiteSpace=wrap;html=1;" vertex="1" parent="1">
          <mxGeometry x="680" y="130" width="120" height="80" as="geometry" />
        </mxCell>
        <mxCell id="Uw70dMzSXy8Ui96ppWFQ-14" value="Aprovar transferência" style="ellipse;whiteSpace=wrap;html=1;" vertex="1" parent="1">
          <mxGeometry x="570" y="560" width="120" height="80" as="geometry" />
        </mxCell>
        <mxCell id="Uw70dMzSXy8Ui96ppWFQ-15" value="Extends" style="endArrow=block;endSize=16;endFill=0;html=1;rounded=0;entryX=0.5;entryY=1;entryDx=0;entryDy=0;exitX=0.5;exitY=0;exitDx=0;exitDy=0;" edge="1" parent="1" source="Uw70dMzSXy8Ui96ppWFQ-5" target="Uw70dMzSXy8Ui96ppWFQ-4">
          <mxGeometry width="160" relative="1" as="geometry">
            <mxPoint x="380" y="580" as="sourcePoint" />
            <mxPoint x="640" y="550" as="targetPoint" />
          </mxGeometry>
        </mxCell>
        <mxCell id="Uw70dMzSXy8Ui96ppWFQ-18" style="edgeStyle=orthogonalEdgeStyle;rounded=0;orthogonalLoop=1;jettySize=auto;html=1;exitX=0.5;exitY=0.5;exitDx=0;exitDy=0;exitPerimeter=0;" edge="1" parent="1" source="Uw70dMzSXy8Ui96ppWFQ-1" target="Uw70dMzSXy8Ui96ppWFQ-2">
          <mxGeometry relative="1" as="geometry">
            <mxPoint x="550" y="330" as="targetPoint" />
          </mxGeometry>
        </mxCell>
        <mxCell id="Uw70dMzSXy8Ui96ppWFQ-23" value="Include" style="endArrow=block;endSize=16;endFill=0;html=1;rounded=0;entryX=0;entryY=0.5;entryDx=0;entryDy=0;exitX=1;exitY=0.5;exitDx=0;exitDy=0;" edge="1" parent="1" source="Uw70dMzSXy8Ui96ppWFQ-9" target="Uw70dMzSXy8Ui96ppWFQ-14">
          <mxGeometry width="160" relative="1" as="geometry">
            <mxPoint x="480" y="650" as="sourcePoint" />
            <mxPoint x="640" y="650" as="targetPoint" />
          </mxGeometry>
        </mxCell>
      </root>
    </mxGraphModel>
  </diagram>
</mxfile>
